<svg width="60" height="81" viewBox="0 0 60 81" fill="none" xmlns="http://www.w3.org/2000/svg">
<path d="M59.7476 30.2697C59.3171 55.0032 41.1262 73.2794 33.5927 79.8026C31.7428 81.4043 29.0028 81.3965 27.1529 79.7948C19.5244 73.1882 1 54.5533 1 29.3777C1 13.1686 14.1278 0.0252431 30.3311 3.45528e-05C46.8563 -0.025174 60.0346 13.7465 59.7476 30.2697Z" fill="#CE4A1D"/>
<path d="M30.3791 55.0628C43.0158 55.0628 53.2599 44.8187 53.2599 32.182C53.2599 19.5452 43.0158 9.30115 30.3791 9.30115C17.7424 9.30115 7.49829 19.5452 7.49829 32.182C7.49829 44.8187 17.7424 55.0628 30.3791 55.0628Z" fill="white"/>
<path d="M46.612 18.7783C42.9761 15.7823 38.3164 13.9809 33.2379 13.9809C21.6186 13.9809 12.1984 23.4011 12.1984 35.0203C12.1984 40.0989 13.9998 44.7586 16.9958 48.3944C12.3186 44.5356 9.3382 38.695 9.3382 32.1601C9.3382 20.5409 18.7584 11.1207 30.3777 11.1207C36.9125 11.1207 42.7531 14.1011 46.612 18.7783Z" fill="#EFEFEF"/>
<path d="M59.7476 30.2697C59.3171 55.0032 41.1262 73.2794 33.5927 79.8026C31.7447 81.4023 29.0028 81.3965 27.1548 79.7948C23.5946 76.7116 17.6628 71.0106 12.3477 63.2502C17.2847 65.3096 25.9952 67.9099 34.4498 65.3484C46.9087 61.5729 65.9838 32.6199 49.6331 7.29498C55.9682 12.8816 59.9066 21.1578 59.7476 30.2697Z" fill="#AE3E18"/>
<path d="M23.0995 2.9886C19.9448 3.4937 11.2033 5.77893 7.56795 15.7682C7.161 16.8863 8.64141 17.0952 9.30792 16.1144C12.0861 12.0343 16.7228 7.08465 23.4311 5.72136C23.8845 5.62982 24.2098 5.22116 24.2178 4.74875L24.2402 4.00534C24.2498 3.37928 23.7067 2.89215 23.0995 2.9886Z" fill="#AE3E18"/>
<path d="M14.5671 25.7774L29.331 17.874C29.8177 17.5813 31.025 17.1715 31.9596 17.874L46.223 25.5934C46.411 25.6951 46.4812 25.9298 46.3801 26.118L44.5186 29.5828V43.0478C42.6688 42.1697 39.1468 39.9991 34.803 40.8447C35.9279 39.8112 38.1537 38.4139 41.2378 38.1027C41.4402 38.0822 41.5979 37.914 41.5979 37.7106V26.6096C41.5979 26.4591 41.5128 26.3213 41.3722 26.2677C39.7319 25.6427 35.6193 25.3581 30.4992 28.7046C28.2887 27.3561 22.8141 25.4179 18.4032 28.2976C18.2961 28.3675 18.2323 28.4883 18.2323 28.6162V43.483C20.2768 42.4598 25.5925 40.9403 30.4992 43.0478M30.4992 43.0478C30.3045 43.8284 30.2443 45.3896 31.8799 45.3896C32.5983 45.2996 33.3031 44.8041 32.8358 43.6333C32.5534 43.0478 31.6675 42.5795 30.4992 43.0478ZM30.4992 43.0478V31.3391" stroke="#292929" stroke-width="1.48818" stroke-linecap="round"/>
<line x1="2.33093" y1="67.9663" x2="17.4255" y2="48.6967" stroke="white" stroke-width="3.87824" stroke-linecap="round"/>
</svg>