<svg width="120" height="130" viewBox="0 0 120 130" fill="none" xmlns="http://www.w3.org/2000/svg">
<path fillRule="evenodd" clipRule="evenodd" d="M2.5 0C3.88072 0 5 1.11929 5 2.5V3.02521C5 4.40592 3.88072 5.52521 2.5 5.52521C1.11929 5.52521 3.62211e-06 4.40592 3.68246e-06 3.02521L3.70542e-06 2.5C3.76577e-06 1.11929 1.11929 0 2.5 0ZM2.5 17.3319C3.88071 17.3319 5 18.4512 5 19.8319V20.8824C5 22.2631 3.88071 23.3824 2.5 23.3824C1.11929 23.3824 2.84155e-06 22.2631 2.9019e-06 20.8824L2.94781e-06 19.8319C3.00817e-06 18.4512 1.11929 17.3319 2.5 17.3319ZM2.5 35.1891C3.88071 35.1891 5 36.3084 5 37.6891L5 38.7395C5 40.1202 3.88071 41.2395 2.5 41.2395C1.11929 41.2395 2.06099e-06 40.1202 2.12134e-06 38.7395L2.16726e-06 37.6891C2.22761e-06 36.3084 1.11929 35.1891 2.5 35.1891ZM2.5 53.0462C3.88071 53.0462 5 54.1655 5 55.5462V56.5966C5 57.9774 3.88071 59.0966 2.5 59.0966C1.11929 59.0966 0 57.9774 0 56.5966V55.5462C0 54.1655 1.11929 53.0462 2.5 53.0462ZM2.5 70.9034C3.88071 70.9034 5 72.0227 5 73.4034V74.4538C5 75.8345 3.88071 76.9538 2.5 76.9538C1.11929 76.9538 0 75.8345 0 74.4538V73.4034C0 72.0227 1.11929 70.9034 2.5 70.9034ZM2.5 88.7605C3.88071 88.7605 5 89.8798 5 91.2605V92.3109C5 93.6916 3.88071 94.8109 2.5 94.8109C1.11929 94.8109 0 93.6916 0 92.3109V91.2605C0 89.8798 1.11929 88.7605 2.5 88.7605ZM2.5 106.618C3.88071 106.618 5 107.737 5 109.118V110.168C5 111.549 3.88071 112.668 2.5 112.668C1.11929 112.668 0 111.549 0 110.168V109.118C0 107.737 1.11929 106.618 2.5 106.618ZM2.5 124.475C3.88071 124.475 5 125.594 5 126.975V127.5C5 128.881 3.88071 130 2.5 130C1.11929 130 0 128.881 0 127.5V126.975C0 125.594 1.11929 124.475 2.5 124.475ZM16.7683 0C18.149 0 19.2683 1.11929 19.2683 2.5V3.02521C19.2683 4.40592 18.149 5.52521 16.7683 5.52521C15.3876 5.52521 14.2683 4.40592 14.2683 3.02521V2.5C14.2683 1.11929 15.3876 0 16.7683 0ZM16.7683 17.3319C18.149 17.3319 19.2683 18.4512 19.2683 19.8319V20.8824C19.2683 22.2631 18.149 23.3824 16.7683 23.3824C15.3876 23.3824 14.2683 22.2631 14.2683 20.8824V19.8319C14.2683 18.4512 15.3876 17.3319 16.7683 17.3319ZM16.7683 35.1891C18.149 35.1891 19.2683 36.3084 19.2683 37.6891V38.7395C19.2683 40.1202 18.149 41.2395 16.7683 41.2395C15.3876 41.2395 14.2683 40.1202 14.2683 38.7395V37.6891C14.2683 36.3084 15.3876 35.1891 16.7683 35.1891ZM16.7683 53.0462C18.149 53.0462 19.2683 54.1655 19.2683 55.5462V56.5966C19.2683 57.9774 18.149 59.0966 16.7683 59.0966C15.3876 59.0966 14.2683 57.9774 14.2683 56.5966V55.5462C14.2683 54.1655 15.3876 53.0462 16.7683 53.0462ZM16.7683 70.9034C18.149 70.9034 19.2683 72.0227 19.2683 73.4034V74.4538C19.2683 75.8345 18.149 76.9538 16.7683 76.9538C15.3876 76.9538 14.2683 75.8345 14.2683 74.4538V73.4034C14.2683 72.0227 15.3876 70.9034 16.7683 70.9034ZM16.7683 88.7605C18.149 88.7605 19.2683 89.8798 19.2683 91.2605V92.3109C19.2683 93.6916 18.149 94.8109 16.7683 94.8109C15.3876 94.8109 14.2683 93.6916 14.2683 92.3109V91.2605C14.2683 89.8798 15.3876 88.7605 16.7683 88.7605ZM16.7683 106.618C18.149 106.618 19.2683 107.737 19.2683 109.118V110.168C19.2683 111.549 18.149 112.668 16.7683 112.668C15.3876 112.668 14.2683 111.549 14.2683 110.168V109.118C14.2683 107.737 15.3876 106.618 16.7683 106.618ZM16.7683 124.475C18.149 124.475 19.2683 125.594 19.2683 126.975V127.5C19.2683 128.881 18.149 130 16.7683 130C15.3876 130 14.2683 128.881 14.2683 127.5V126.975C14.2683 125.594 15.3876 124.475 16.7683 124.475ZM33.5366 2.5C33.5366 1.11929 32.4173 0 31.0366 0C29.6559 0 28.5366 1.11929 28.5366 2.5V3.02521C28.5366 4.40592 29.6559 5.52521 31.0366 5.52521C32.4173 5.52521 33.5366 4.40592 33.5366 3.02521V2.5ZM33.5366 19.8319C33.5366 18.4512 32.4173 17.3319 31.0366 17.3319C29.6559 17.3319 28.5366 18.4512 28.5366 19.8319V20.8824C28.5366 22.2631 29.6559 23.3824 31.0366 23.3824C32.4173 23.3824 33.5366 22.2631 33.5366 20.8824V19.8319ZM33.5366 37.6891C33.5366 36.3084 32.4173 35.1891 31.0366 35.1891C29.6559 35.1891 28.5366 36.3084 28.5366 37.6891V38.7395C28.5366 40.1202 29.6559 41.2395 31.0366 41.2395C32.4173 41.2395 33.5366 40.1202 33.5366 38.7395V37.6891ZM33.5366 55.5462C33.5366 54.1655 32.4173 53.0462 31.0366 53.0462C29.6559 53.0462 28.5366 54.1655 28.5366 55.5462V56.5966C28.5366 57.9774 29.6559 59.0966 31.0366 59.0966C32.4173 59.0966 33.5366 57.9774 33.5366 56.5966V55.5462ZM33.5366 73.4034C33.5366 72.0227 32.4173 70.9034 31.0366 70.9034C29.6559 70.9034 28.5366 72.0227 28.5366 73.4034V74.4538C28.5366 75.8345 29.6559 76.9538 31.0366 76.9538C32.4173 76.9538 33.5366 75.8345 33.5366 74.4538V73.4034ZM33.5366 91.2605C33.5366 89.8798 32.4173 88.7605 31.0366 88.7605C29.6559 88.7605 28.5366 89.8798 28.5366 91.2605V92.3109C28.5366 93.6916 29.6559 94.8109 31.0366 94.8109C32.4173 94.8109 33.5366 93.6916 33.5366 92.3109V91.2605ZM33.5366 109.118C33.5366 107.737 32.4173 106.618 31.0366 106.618C29.6559 106.618 28.5366 107.737 28.5366 109.118V110.168C28.5366 111.549 29.6559 112.668 31.0366 112.668C32.4173 112.668 33.5366 111.549 33.5366 110.168V109.118ZM33.5366 126.975C33.5366 125.594 32.4173 124.475 31.0366 124.475C29.6559 124.475 28.5366 125.594 28.5366 126.975V127.5C28.5366 128.881 29.6559 130 31.0366 130C32.4173 130 33.5366 128.881 33.5366 127.5V126.975ZM45.3049 0C46.6856 0 47.8049 1.11929 47.8049 2.5V3.02521C47.8049 4.40592 46.6856 5.52521 45.3049 5.52521C43.9242 5.52521 42.8049 4.40592 42.8049 3.02521V2.5C42.8049 1.11929 43.9242 0 45.3049 0ZM45.3049 17.3319C46.6856 17.3319 47.8049 18.4512 47.8049 19.8319V20.8824C47.8049 22.2631 46.6856 23.3824 45.3049 23.3824C43.9242 23.3824 42.8049 22.2631 42.8049 20.8824V19.8319C42.8049 18.4512 43.9242 17.3319 45.3049 17.3319ZM45.3049 35.1891C46.6856 35.1891 47.8049 36.3084 47.8049 37.6891V38.7395C47.8049 40.1202 46.6856 41.2395 45.3049 41.2395C43.9242 41.2395 42.8049 40.1202 42.8049 38.7395V37.6891C42.8049 36.3084 43.9242 35.1891 45.3049 35.1891ZM45.3049 53.0462C46.6856 53.0462 47.8049 54.1655 47.8049 55.5462V56.5966C47.8049 57.9774 46.6856 59.0966 45.3049 59.0966C43.9242 59.0966 42.8049 57.9774 42.8049 56.5966V55.5462C42.8049 54.1655 43.9242 53.0462 45.3049 53.0462ZM45.3049 70.9034C46.6856 70.9034 47.8049 72.0227 47.8049 73.4034V74.4538C47.8049 75.8345 46.6856 76.9538 45.3049 76.9538C43.9242 76.9538 42.8049 75.8345 42.8049 74.4538V73.4034C42.8049 72.0227 43.9242 70.9034 45.3049 70.9034ZM45.3049 88.7605C46.6856 88.7605 47.8049 89.8798 47.8049 91.2605V92.3109C47.8049 93.6916 46.6856 94.8109 45.3049 94.8109C43.9242 94.8109 42.8049 93.6916 42.8049 92.3109V91.2605C42.8049 89.8798 43.9242 88.7605 45.3049 88.7605ZM45.3049 106.618C46.6856 106.618 47.8049 107.737 47.8049 109.118V110.168C47.8049 111.549 46.6856 112.668 45.3049 112.668C43.9242 112.668 42.8049 111.549 42.8049 110.168V109.118C42.8049 107.737 43.9242 106.618 45.3049 106.618ZM45.3049 124.475C46.6856 124.475 47.8049 125.594 47.8049 126.975V127.5C47.8049 128.881 46.6856 130 45.3049 130C43.9242 130 42.8049 128.881 42.8049 127.5V126.975C42.8049 125.594 43.9242 124.475 45.3049 124.475ZM62.0732 2.5C62.0732 1.11929 60.9539 0 59.5732 0C58.1925 0 57.0732 1.11929 57.0732 2.5V3.02521C57.0732 4.40592 58.1925 5.52521 59.5732 5.52521C60.9539 5.52521 62.0732 4.40592 62.0732 3.02521V2.5ZM62.0732 19.8319C62.0732 18.4512 60.9539 17.3319 59.5732 17.3319C58.1925 17.3319 57.0732 18.4512 57.0732 19.8319V20.8824C57.0732 22.2631 58.1925 23.3824 59.5732 23.3824C60.9539 23.3824 62.0732 22.2631 62.0732 20.8824V19.8319ZM62.0732 37.6891C62.0732 36.3084 60.9539 35.1891 59.5732 35.1891C58.1925 35.1891 57.0732 36.3084 57.0732 37.6891V38.7395C57.0732 40.1202 58.1925 41.2395 59.5732 41.2395C60.9539 41.2395 62.0732 40.1202 62.0732 38.7395V37.6891ZM62.0732 55.5462C62.0732 54.1655 60.9539 53.0462 59.5732 53.0462C58.1925 53.0462 57.0732 54.1655 57.0732 55.5462V56.5966C57.0732 57.9774 58.1925 59.0966 59.5732 59.0966C60.9539 59.0966 62.0732 57.9774 62.0732 56.5966V55.5462ZM62.0732 73.4034C62.0732 72.0227 60.9539 70.9034 59.5732 70.9034C58.1925 70.9034 57.0732 72.0227 57.0732 73.4034V74.4538C57.0732 75.8345 58.1925 76.9538 59.5732 76.9538C60.9539 76.9538 62.0732 75.8345 62.0732 74.4538V73.4034ZM62.0732 91.2605C62.0732 89.8798 60.9539 88.7605 59.5732 88.7605C58.1925 88.7605 57.0732 89.8798 57.0732 91.2605V92.3109C57.0732 93.6916 58.1925 94.8109 59.5732 94.8109C60.9539 94.8109 62.0732 93.6916 62.0732 92.3109V91.2605ZM62.0732 109.118C62.0732 107.737 60.9539 106.618 59.5732 106.618C58.1925 106.618 57.0732 107.737 57.0732 109.118V110.168C57.0732 111.549 58.1925 112.668 59.5732 112.668C60.9539 112.668 62.0732 111.549 62.0732 110.168V109.118ZM62.0732 126.975C62.0732 125.594 60.9539 124.475 59.5732 124.475C58.1925 124.475 57.0732 125.594 57.0732 126.975V127.5C57.0732 128.881 58.1925 130 59.5732 130C60.9539 130 62.0732 128.881 62.0732 127.5V126.975ZM73.8415 0C75.2222 0 76.3415 1.11929 76.3415 2.5V3.02521C76.3415 4.40592 75.2222 5.52521 73.8415 5.52521C72.4607 5.52521 71.3415 4.40592 71.3415 3.02521V2.5C71.3415 1.11929 72.4607 0 73.8415 0ZM73.8415 17.3319C75.2222 17.3319 76.3415 18.4512 76.3415 19.8319V20.8824C76.3415 22.2631 75.2222 23.3824 73.8415 23.3824C72.4607 23.3824 71.3415 22.2631 71.3415 20.8824V19.8319C71.3415 18.4512 72.4607 17.3319 73.8415 17.3319ZM73.8415 35.1891C75.2222 35.1891 76.3415 36.3084 76.3415 37.6891V38.7395C76.3415 40.1202 75.2222 41.2395 73.8415 41.2395C72.4607 41.2395 71.3415 40.1202 71.3415 38.7395V37.6891C71.3415 36.3084 72.4607 35.1891 73.8415 35.1891ZM73.8415 53.0462C75.2222 53.0462 76.3415 54.1655 76.3415 55.5462V56.5966C76.3415 57.9774 75.2222 59.0966 73.8415 59.0966C72.4607 59.0966 71.3415 57.9774 71.3415 56.5966V55.5462C71.3415 54.1655 72.4607 53.0462 73.8415 53.0462ZM73.8415 70.9034C75.2222 70.9034 76.3415 72.0227 76.3415 73.4034V74.4538C76.3415 75.8345 75.2222 76.9538 73.8415 76.9538C72.4607 76.9538 71.3415 75.8345 71.3415 74.4538V73.4034C71.3415 72.0227 72.4607 70.9034 73.8415 70.9034ZM73.8415 88.7605C75.2222 88.7605 76.3415 89.8798 76.3415 91.2605V92.3109C76.3415 93.6916 75.2222 94.8109 73.8415 94.8109C72.4607 94.8109 71.3415 93.6916 71.3415 92.3109V91.2605C71.3415 89.8798 72.4607 88.7605 73.8415 88.7605ZM73.8415 106.618C75.2222 106.618 76.3415 107.737 76.3415 109.118V110.168C76.3415 111.549 75.2222 112.668 73.8415 112.668C72.4607 112.668 71.3415 111.549 71.3415 110.168V109.118C71.3415 107.737 72.4607 106.618 73.8415 106.618ZM73.8415 124.475C75.2222 124.475 76.3415 125.594 76.3415 126.975V127.5C76.3415 128.881 75.2222 130 73.8415 130C72.4607 130 71.3415 128.881 71.3415 127.5V126.975C71.3415 125.594 72.4607 124.475 73.8415 124.475ZM90.6098 2.5C90.6098 1.11929 89.4905 0 88.1098 0C86.7291 0 85.6098 1.11929 85.6098 2.5V3.02521C85.6098 4.40592 86.7291 5.52521 88.1098 5.52521C89.4905 5.52521 90.6098 4.40592 90.6098 3.02521V2.5ZM90.6098 19.8319C90.6098 18.4512 89.4905 17.3319 88.1098 17.3319C86.7291 17.3319 85.6098 18.4512 85.6098 19.8319V20.8824C85.6098 22.2631 86.7291 23.3824 88.1098 23.3824C89.4905 23.3824 90.6098 22.2631 90.6098 20.8824V19.8319ZM90.6098 37.6891C90.6098 36.3084 89.4905 35.1891 88.1098 35.1891C86.7291 35.1891 85.6098 36.3084 85.6098 37.6891V38.7395C85.6098 40.1202 86.7291 41.2395 88.1098 41.2395C89.4905 41.2395 90.6098 40.1202 90.6098 38.7395V37.6891ZM90.6098 55.5462C90.6098 54.1655 89.4905 53.0462 88.1098 53.0462C86.7291 53.0462 85.6098 54.1655 85.6098 55.5462V56.5966C85.6098 57.9774 86.7291 59.0966 88.1098 59.0966C89.4905 59.0966 90.6098 57.9774 90.6098 56.5966V55.5462ZM90.6098 73.4034C90.6098 72.0227 89.4905 70.9034 88.1098 70.9034C86.7291 70.9034 85.6098 72.0227 85.6098 73.4034V74.4538C85.6098 75.8345 86.7291 76.9538 88.1098 76.9538C89.4905 76.9538 90.6098 75.8345 90.6098 74.4538V73.4034ZM90.6098 91.2605C90.6098 89.8798 89.4905 88.7605 88.1098 88.7605C86.7291 88.7605 85.6098 89.8798 85.6098 91.2605V92.3109C85.6098 93.6916 86.7291 94.8109 88.1098 94.8109C89.4905 94.8109 90.6098 93.6916 90.6098 92.3109V91.2605ZM90.6098 109.118C90.6098 107.737 89.4905 106.618 88.1098 106.618C86.7291 106.618 85.6098 107.737 85.6098 109.118V110.168C85.6098 111.549 86.7291 112.668 88.1098 112.668C89.4905 112.668 90.6098 111.549 90.6098 110.168V109.118ZM90.6098 126.975C90.6098 125.594 89.4905 124.475 88.1098 124.475C86.7291 124.475 85.6098 125.594 85.6098 126.975V127.5C85.6098 128.881 86.7291 130 88.1098 130C89.4905 130 90.6098 128.881 90.6098 127.5V126.975ZM102.378 0C103.759 0 104.878 1.11929 104.878 2.5V3.02521C104.878 4.40592 103.759 5.52521 102.378 5.52521C100.997 5.52521 99.8781 4.40592 99.8781 3.02521V2.5C99.8781 1.11929 100.997 0 102.378 0ZM102.378 17.3319C103.759 17.3319 104.878 18.4512 104.878 19.8319V20.8824C104.878 22.2631 103.759 23.3824 102.378 23.3824C100.997 23.3824 99.8781 22.2631 99.8781 20.8824V19.8319C99.8781 18.4512 100.997 17.3319 102.378 17.3319ZM102.378 35.1891C103.759 35.1891 104.878 36.3084 104.878 37.6891V38.7395C104.878 40.1202 103.759 41.2395 102.378 41.2395C100.997 41.2395 99.8781 40.1202 99.8781 38.7395V37.6891C99.8781 36.3084 100.997 35.1891 102.378 35.1891ZM102.378 53.0462C103.759 53.0462 104.878 54.1655 104.878 55.5462V56.5966C104.878 57.9774 103.759 59.0966 102.378 59.0966C100.997 59.0966 99.8781 57.9774 99.8781 56.5966V55.5462C99.8781 54.1655 100.997 53.0462 102.378 53.0462ZM102.378 70.9034C103.759 70.9034 104.878 72.0227 104.878 73.4034V74.4538C104.878 75.8345 103.759 76.9538 102.378 76.9538C100.997 76.9538 99.8781 75.8345 99.8781 74.4538V73.4034C99.8781 72.0227 100.997 70.9034 102.378 70.9034ZM102.378 88.7605C103.759 88.7605 104.878 89.8798 104.878 91.2605V92.3109C104.878 93.6916 103.759 94.8109 102.378 94.8109C100.997 94.8109 99.878 93.6916 99.878 92.3109V91.2605C99.878 89.8798 100.997 88.7605 102.378 88.7605ZM102.378 106.618C103.759 106.618 104.878 107.737 104.878 109.118V110.168C104.878 111.549 103.759 112.668 102.378 112.668C100.997 112.668 99.878 111.549 99.878 110.168V109.118C99.878 107.737 100.997 106.618 102.378 106.618ZM102.378 124.475C103.759 124.475 104.878 125.594 104.878 126.975V127.5C104.878 128.881 103.759 130 102.378 130C100.997 130 99.878 128.881 99.878 127.5V126.975C99.878 125.594 100.997 124.475 102.378 124.475ZM119.146 2.5C119.146 1.11929 118.027 0 116.646 0C115.266 0 114.146 1.11929 114.146 2.5V3.02521C114.146 4.40592 115.266 5.52521 116.646 5.52521C118.027 5.52521 119.146 4.40592 119.146 3.02521V2.5ZM119.146 19.8319C119.146 18.4512 118.027 17.3319 116.646 17.3319C115.266 17.3319 114.146 18.4512 114.146 19.8319V20.8824C114.146 22.2631 115.266 23.3824 116.646 23.3824C118.027 23.3824 119.146 22.2631 119.146 20.8824V19.8319ZM119.146 37.6891C119.146 36.3084 118.027 35.1891 116.646 35.1891C115.266 35.1891 114.146 36.3084 114.146 37.6891V38.7395C114.146 40.1202 115.266 41.2395 116.646 41.2395C118.027 41.2395 119.146 40.1202 119.146 38.7395V37.6891ZM119.146 55.5462C119.146 54.1655 118.027 53.0462 116.646 53.0462C115.266 53.0462 114.146 54.1655 114.146 55.5462V56.5966C114.146 57.9774 115.266 59.0966 116.646 59.0966C118.027 59.0966 119.146 57.9774 119.146 56.5966V55.5462ZM119.146 73.4034C119.146 72.0227 118.027 70.9034 116.646 70.9034C115.266 70.9034 114.146 72.0227 114.146 73.4034V74.4538C114.146 75.8345 115.266 76.9538 116.646 76.9538C118.027 76.9538 119.146 75.8345 119.146 74.4538V73.4034ZM119.146 91.2605C119.146 89.8798 118.027 88.7605 116.646 88.7605C115.266 88.7605 114.146 89.8798 114.146 91.2605V92.3109C114.146 93.6916 115.266 94.8109 116.646 94.8109C118.027 94.8109 119.146 93.6916 119.146 92.3109V91.2605ZM119.146 109.118C119.146 107.737 118.027 106.618 116.646 106.618C115.266 106.618 114.146 107.737 114.146 109.118V110.168C114.146 111.549 115.266 112.668 116.646 112.668C118.027 112.668 119.146 111.549 119.146 110.168V109.118ZM119.146 126.975C119.146 125.594 118.027 124.475 116.646 124.475C115.266 124.475 114.146 125.594 114.146 126.975V127.5C114.146 128.881 115.266 130 116.646 130C118.027 130 119.146 128.881 119.146 127.5V126.975Z" fill="url(#paint0_linear)"/>
<defs>
<linearGradient id="paint0_linear" x1="0" y1="0" x2="59.5732" y2="130" gradientUnits="userSpaceOnUse">
<stop stop-color="#020202"/>
<stop offset="1" stop-opacity="0"/>
</linearGradient>
</defs>
</svg>
