

<svg width="201" height="82" viewBox="0 0 201 82" fill="none" xmlns="http://www.w3.org/2000/svg">
<path d="M59.7476 30.2697C59.3171 55.0032 41.1262 73.2794 33.5927 79.8026C31.7428 81.4043 29.0028 81.3965 27.1529 79.7948C19.5244 73.1882 1 54.5533 1 29.3777C1 13.1686 14.1278 0.0252431 30.3311 3.45528e-05C46.8563 -0.025174 60.0346 13.7465 59.7476 30.2697Z" fill="#CE4A1D"/>
<path d="M30.3791 55.0628C43.0158 55.0628 53.2599 44.8187 53.2599 32.182C53.2599 19.5452 43.0158 9.30115 30.3791 9.30115C17.7424 9.30115 7.49829 19.5452 7.49829 32.182C7.49829 44.8187 17.7424 55.0628 30.3791 55.0628Z" fill="white"/>
<path d="M46.612 18.7783C42.9761 15.7823 38.3164 13.9809 33.2379 13.9809C21.6186 13.9809 12.1984 23.4011 12.1984 35.0203C12.1984 40.0989 13.9998 44.7586 16.9958 48.3944C12.3186 44.5356 9.3382 38.695 9.3382 32.1601C9.3382 20.5409 18.7584 11.1207 30.3777 11.1207C36.9125 11.1207 42.7531 14.1011 46.612 18.7783Z" fill="#EFEFEF"/>
<path d="M59.7476 30.2697C59.3171 55.0032 41.1262 73.2794 33.5927 79.8026C31.7447 81.4023 29.0028 81.3965 27.1548 79.7948C23.5946 76.7116 17.6628 71.0106 12.3477 63.2502C17.2847 65.3096 25.9952 67.9099 34.4498 65.3484C46.9087 61.5729 65.9838 32.6199 49.6331 7.29498C55.9682 12.8816 59.9066 21.1578 59.7476 30.2697Z" fill="#AE3E18"/>
<path d="M23.0995 2.9886C19.9448 3.4937 11.2033 5.77893 7.56795 15.7682C7.161 16.8863 8.64141 17.0952 9.30792 16.1144C12.0861 12.0343 16.7228 7.08465 23.4311 5.72136C23.8845 5.62982 24.2098 5.22116 24.2178 4.74875L24.2402 4.00534C24.2498 3.37928 23.7067 2.89215 23.0995 2.9886Z" fill="#AE3E18"/>
<path d="M14.5671 25.7774L29.331 17.874C29.8177 17.5813 31.025 17.1715 31.9596 17.874L46.223 25.5934C46.411 25.6951 46.4812 25.9298 46.3801 26.118L44.5186 29.5828V43.0478C42.6688 42.1697 39.1468 39.9991 34.803 40.8447C35.9279 39.8112 38.1537 38.4139 41.2378 38.1027C41.4402 38.0822 41.5979 37.914 41.5979 37.7106V26.6096C41.5979 26.4591 41.5128 26.3213 41.3722 26.2677C39.7319 25.6427 35.6193 25.3581 30.4992 28.7046C28.2887 27.3561 22.8141 25.4179 18.4032 28.2976C18.2961 28.3675 18.2323 28.4883 18.2323 28.6162V43.483C20.2768 42.4598 25.5925 40.9403 30.4992 43.0478M30.4992 43.0478C30.3045 43.8284 30.2443 45.3896 31.8799 45.3896C32.5983 45.2996 33.3031 44.8041 32.8358 43.6333C32.5534 43.0478 31.6675 42.5795 30.4992 43.0478ZM30.4992 43.0478V31.3391" stroke="#292929" strokeWidth="1.48818" strokeLinecap="round"/>
<line x1="2.33093" y1="67.9663" x2="17.4255" y2="48.6967" stroke="white" strokeWidth="3.87824" strokeLinecap="round"/>
<path d="M89.1135 15.4236C86.777 13.3597 83.7786 12.542 80.6633 12.542C75.2505 12.542 70.1493 15.6183 70.1493 21.4983C70.1493 30.6884 83.0776 27.9625 83.0776 33.0248C83.0776 34.9718 80.858 35.9064 78.872 35.9064C76.8471 35.9064 74.8222 34.9329 73.5761 33.2974L69.2537 38.0482C71.8627 40.4625 74.978 41.5139 78.5216 41.5139C84.2069 41.5139 89.1524 38.5933 89.1524 32.4407C89.1524 22.7834 76.4577 26.0155 76.4577 20.9921C76.4577 18.9282 78.8331 18.1494 80.5465 18.1494C82.0262 18.1494 83.9733 18.7335 84.9468 19.9796L89.1135 15.4236ZM109.605 23.9516C107.775 22.0824 105.088 21.4204 102.868 21.4204C97.027 21.4204 92.3541 25.3145 92.3541 31.3503C92.3541 37.3862 97.027 41.2802 102.868 41.2802C105.088 41.2802 107.775 40.6183 109.605 38.7491L105.75 34.6993C105.088 35.4781 104.153 36.1401 102.868 36.1401C99.9475 36.1401 98.1952 34.193 98.1952 31.3503C98.1952 28.5077 99.9475 26.5606 102.868 26.5606C104.075 26.5606 105.166 27.1837 105.75 28.0014L109.605 23.9516ZM111.724 11.3737V40.813H117.565V31.3893C117.565 28.936 118.032 26.5606 121.07 26.5606C124.068 26.5606 124.107 29.3644 124.107 31.5451V40.813H129.948V30.3768C129.948 25.3145 128.858 21.4204 122.939 21.4204C120.096 21.4204 118.188 22.9781 117.643 24.4578H117.565V11.3737H111.724ZM133.384 31.3503C133.384 37.3862 138.057 41.2802 143.898 41.2802C149.739 41.2802 154.412 37.3862 154.412 31.3503C154.412 25.3145 149.739 21.4204 143.898 21.4204C138.057 21.4204 133.384 25.3145 133.384 31.3503ZM139.225 31.3503C139.225 28.5077 140.977 26.5606 143.898 26.5606C146.818 26.5606 148.571 28.5077 148.571 31.3503C148.571 34.193 146.818 36.1401 143.898 36.1401C140.977 36.1401 139.225 34.193 139.225 31.3503ZM157.151 31.3503C157.151 37.3862 161.824 41.2802 167.665 41.2802C173.506 41.2802 178.179 37.3862 178.179 31.3503C178.179 25.3145 173.506 21.4204 167.665 21.4204C161.824 21.4204 157.151 25.3145 157.151 31.3503ZM162.992 31.3503C162.992 28.5077 164.745 26.5606 167.665 26.5606C170.586 26.5606 172.338 28.5077 172.338 31.3503C172.338 34.193 170.586 36.1401 167.665 36.1401C164.745 36.1401 162.992 34.193 162.992 31.3503ZM181.698 40.813H187.539V11.3737H181.698V40.813ZM70.4908 62.813H72.3779V55.6688H79.7916V53.9165H72.3779V48.6595H80.3533V46.9071H70.4908V62.813ZM82.817 62.813H84.5693V52.2989H82.817V62.813ZM82.4126 48.1877C82.4126 48.9291 82.9518 49.4683 83.6932 49.4683C84.4345 49.4683 84.9737 48.9291 84.9737 48.1877C84.9737 47.4913 84.4121 46.9071 83.6932 46.9071C82.9742 46.9071 82.4126 47.4913 82.4126 48.1877ZM88.0568 62.813H89.8091V57.6907C89.8091 55.2869 90.7976 53.6469 93.0667 53.6469C94.7067 53.6469 95.4705 54.7477 95.4705 56.5001V62.813H97.2228V56.3203C97.2228 53.7817 95.9872 52.0294 93.2239 52.0294C91.4941 52.0294 90.191 52.9954 89.7193 54.0288H89.6743C89.6743 53.4447 89.6294 52.8606 89.6294 52.2989H87.9669C87.9669 52.9954 88.0568 53.8266 88.0568 54.7927V62.813ZM109.279 62.813H111.032V45.8288H109.279V53.8266H109.235C108.268 52.7033 106.988 52.0294 105.46 52.0294C102.158 52.0294 99.9337 54.3658 99.9337 57.556C99.9337 60.7012 102.248 63.0825 105.191 63.0825C107.078 63.0825 108.583 62.139 109.235 60.9483H109.279V62.813ZM109.279 57.556C109.279 59.7576 107.819 61.465 105.55 61.465C103.281 61.465 101.821 59.7576 101.821 57.556C101.821 55.3543 103.281 53.6469 105.55 53.6469C107.819 53.6469 109.279 55.3543 109.279 57.556ZM122.339 59.8699C121.508 60.9258 120.497 61.465 118.992 61.465C117.082 61.465 115.69 59.9149 115.555 58.0951H124.047V57.5335C124.047 54.0513 122.025 52.0294 119.059 52.0294C115.959 52.0294 113.668 54.2984 113.668 57.556C113.668 60.6113 115.69 63.0825 118.992 63.0825C120.947 63.0825 122.429 62.4984 123.665 60.9034L122.339 59.8699ZM115.555 56.6124C115.779 54.8376 117.06 53.6469 118.992 53.6469C120.924 53.6469 122.092 54.8376 122.16 56.6124H115.555ZM126.758 62.813H128.51V57.6907C128.51 55.2869 129.454 53.7817 131.588 53.7817C131.902 53.7817 132.239 53.8266 132.531 53.9165L132.644 52.1417C132.397 52.0518 132.149 52.0294 131.925 52.0294C130.195 52.0294 128.892 52.9954 128.42 54.0288H128.375C128.375 53.4447 128.33 52.8606 128.33 52.2989H126.668C126.668 52.9954 126.758 53.8266 126.758 54.7927V62.813Z" fill="#292929"/>
</svg>


