<svg
                  className="w-8 h-8"
                  viewBox="0 0 60 60"
                  fill="none"
                  xmlns="http://www.w3.org/2000/svg"
                >
                  <path
                    d="M20.5078 1.11328C11.9179 2.29688 4.82809 8.1211 2.10934 16.2539C0.62106 20.707 0.52731 25.2188 1.82809 29.7422C2.85934 33.3398 4.7695 36.5391 7.48825 39.2695C11.2851 43.0664 15.8554 45.2461 21.2695 45.832C22.7695 45.9961 25.6172 45.9023 26.9882 45.6563L27.9023 45.4922L28.7461 46.125C32.1328 48.6914 36.832 49.418 40.9101 48L41.6953 47.7305L43.125 49.1602L44.5664 50.6016L44.3086 50.918C43.7578 51.6328 43.8047 51.7031 46.8984 54.8203C48.4687 56.3906 50.0507 57.8789 50.4375 58.1367C52.1367 59.2734 54.5273 59.3789 56.25 58.3828C59.0625 56.7539 59.9297 53.1094 58.1367 50.4375C57.8789 50.0508 56.3906 48.4688 54.8203 46.8984C51.7031 43.8047 51.6328 43.7578 50.9179 44.3086L50.6015 44.5664L49.3125 43.2773L48.0234 41.9883L48.3515 41.3555C48.5273 41.0039 48.7968 40.3477 48.9492 39.9023C50.4961 35.4023 49.5468 30.6328 46.3593 26.8945L45.7617 26.1914L45.832 25.4297C46.3945 19.6875 44.4609 13.5352 40.6406 8.96485C37.0664 4.6875 31.8867 1.85156 26.2968 1.11328C24.6914 0.902346 22.0429 0.902346 20.5078 1.11328ZM26.5429 3.07031C29.2851 3.45703 32.2265 4.58203 34.6875 6.17578C36.9257 7.64063 39.0351 9.70313 40.5351 11.9297C40.8164 12.3398 41.0156 12.6914 40.9922 12.7148C40.8867 12.832 35.9531 15.5859 35.8711 15.5859C35.8125 15.5859 34.875 14.5195 33.7968 13.207C32.7187 11.9063 31.7109 10.7227 31.5586 10.5703C31.2773 10.3242 31.207 10.3125 28.6757 10.3125H26.0625L24.1523 11.0859C23.0976 11.5078 22.1953 11.8125 22.1484 11.7539C22.1015 11.707 21.7617 10.7578 21.3984 9.64453L20.7304 7.64063L22.3476 5.21485L23.9531 2.78906L24.8437 2.8711C25.3242 2.90625 26.0976 3 26.5429 3.07031ZM21.375 3.2461C21.2695 3.4336 20.625 4.39453 19.957 5.39063C19.289 6.38672 18.75 7.3125 18.75 7.44141C18.75 7.57031 19.1953 9.02344 19.7461 10.6641C20.7656 13.7227 20.9414 14.0625 21.4922 14.0625C21.6328 14.0625 22.7929 13.6406 24.082 13.125L26.414 12.1875H28.4765H30.5273L32.8007 14.9297C34.0429 16.4414 35.1445 17.707 35.2382 17.7422C35.6367 17.8945 36 17.7305 38.8476 16.1133C40.5 15.1758 41.8828 14.4375 41.9414 14.4609C42.1172 14.5781 42.8906 16.5234 43.2422 17.7539C43.7461 19.5 43.957 20.8242 44.0273 22.875C44.0976 24.8789 44.0859 24.9258 43.5 24.5039C42.9375 24.1172 41.5078 23.4375 40.582 23.1445C37.875 22.2539 34.8398 22.3125 32.1328 23.3086C31.6054 23.4961 30.832 23.8359 30.4218 24.0586L29.6601 24.457L29.5547 24.1523C27.5742 18.6563 27.0234 17.2617 26.8242 17.0742C26.6836 16.9688 26.4375 16.875 26.2617 16.875C26.0859 16.8867 24.914 17.5078 23.3906 18.4336L20.8242 19.9805L19.5468 22.9688C18.8437 24.6094 18.2343 25.9922 18.1875 26.0391C18.1406 26.0742 17.1797 25.9336 16.0547 25.6992C14.6601 25.418 13.9218 25.3242 13.7461 25.3828C13.5937 25.4414 12.3398 26.8477 10.957 28.5117L8.43747 31.5469V34.5469L8.42575 37.5586L7.87497 36.9258C6.93747 35.8711 5.8945 34.3359 5.22653 33.0352C4.57028 31.793 3.74997 29.8008 3.74997 29.4844C3.74997 29.3906 4.28903 28.418 4.94528 27.3164L6.15231 25.3125H7.41794H8.67184L11.7187 23.7891C14.039 22.6289 14.8007 22.1953 14.9062 21.9727C15.1054 21.5156 14.1093 15.6211 13.7812 15.293C13.6172 15.1406 12.9257 14.9063 11.707 14.6133L9.87887 14.168L8.37887 12.6563L6.87887 11.1445L7.54684 10.3242C10.1718 7.11328 14.1914 4.53516 18.164 3.51563C19.2422 3.23438 20.7187 2.96485 21.2578 2.94141L21.5859 2.92969L21.375 3.2461ZM10.5468 16.2539C11.4843 16.4883 12.2578 16.6875 12.2695 16.6875C12.3164 16.7227 13.0195 21.0117 12.9843 21.0352C12.9609 21.0586 11.8828 21.5977 10.582 22.2539L8.20309 23.4375H6.78512C6.01168 23.4375 5.28512 23.4844 5.16793 23.5547C5.05075 23.6133 4.53512 24.3633 4.03122 25.207L3.11715 26.7656L2.99997 26.2969C2.94137 26.0508 2.88278 24.7852 2.88278 23.4961C2.88278 21.5508 2.92965 20.918 3.14059 19.7813C3.50387 17.8828 4.18356 15.8672 5.05075 14.1797L5.77731 12.75L7.31247 14.2852L8.84762 15.8203L10.5468 16.2539ZM26.9297 22.4414L28.0781 25.582L27.164 26.5078C23.8125 29.9297 22.6406 34.8164 24.0351 39.5156C24.3281 40.5117 25.2773 42.4219 25.8515 43.1719C26.1093 43.5117 26.2382 43.7695 26.1679 43.8398C25.9804 44.0273 22.7812 44.1094 21.3867 43.957C17.5664 43.5352 13.9101 42.0938 10.9336 39.8203L10.3125 39.3516V35.7656V32.1914L12.3164 29.8125C13.4179 28.5 14.3672 27.3984 14.4257 27.3633C14.4843 27.3164 15.5156 27.4922 16.7109 27.7266C18.6797 28.125 18.9257 28.1484 19.1953 27.9961C19.4179 27.8672 19.8047 27.0938 20.9062 24.5508L22.3242 21.2695L24.0117 20.25C24.9492 19.6875 25.7226 19.2422 25.7461 19.2656C25.7695 19.2891 26.2968 20.7188 26.9297 22.4414ZM39.2695 24.7148C41.3203 25.2422 42.9843 26.2031 44.4843 27.7031C46.0078 29.2148 46.9336 30.8555 47.4843 32.9648C47.8593 34.3828 47.8593 36.9375 47.4843 38.3203C46.8984 40.4883 46.0429 41.9531 44.4726 43.5352C42.3984 45.6094 40.0781 46.6523 37.1953 46.8398C32.4492 47.1328 27.9023 44.25 26.1445 39.832C25.5234 38.2734 25.3828 37.5 25.3828 35.625C25.3828 33.832 25.582 32.7422 26.1562 31.3477C26.8945 29.5898 28.4531 27.5977 29.9414 26.543C31.3242 25.5469 33.1054 24.8086 34.8047 24.5039C35.789 24.3281 38.2265 24.4453 39.2695 24.7148ZM47.6015 47.6016L45.9375 49.2773L44.6953 48.0352L43.4531 46.793L44.25 46.2305C45.0937 45.6211 46.875 43.8867 46.875 43.6641C46.875 43.5938 47.414 44.0742 48.0703 44.7422L49.2773 45.9375L47.6015 47.6016ZM54.164 48.9492C57.0234 51.8438 57.1289 52.0078 57.1289 53.5547C57.1172 55.0195 56.4023 56.1563 55.1015 56.8008C54.539 57.082 54.2812 57.1289 53.4961 57.1289C52.0078 57.1289 51.7031 56.9297 48.8086 54.0234L46.3476 51.5625L48.9257 48.9844C50.3437 47.5664 51.5273 46.4063 51.5625 46.4063C51.5976 46.4063 52.7695 47.5547 54.164 48.9492Z"
                    fill="white"
                  />
                  <path
                    d="M34.8633 26.4141C32.3086 26.918 30.1172 28.3828 28.7109 30.5508C27.668 32.1445 27.2461 33.5859 27.2461 35.625C27.2461 37.6641 27.668 39.1055 28.6992 40.6875C31.5469 45.0352 37.3359 46.2891 41.6367 43.4766C45.9727 40.6524 47.2266 34.8281 44.4258 30.5625C43.0898 28.5234 41.2266 27.1875 38.7891 26.5313C37.875 26.2734 35.8594 26.2266 34.8633 26.4141ZM38.1445 28.3008C39.3984 28.5586 40.8047 29.332 41.7539 30.2578C42.6797 31.1602 42.668 31.0195 41.8711 32.625C40.043 36.2813 36.8789 39.5977 33.4219 41.4492L32.5078 41.9414L31.8398 41.4141C30.6094 40.4531 29.5664 38.7539 29.2266 37.1602C28.2539 32.5664 31.793 28.1836 36.5039 28.1367C36.9609 28.1367 37.6992 28.207 38.1445 28.3008ZM44.0273 35.2149C44.2852 39.6328 40.6055 43.3477 36.2109 43.0899C34.6992 43.0078 34.6641 42.9609 35.6602 42.3164C36.9375 41.4727 38.7891 39.9492 39.668 39C41.168 37.3828 42.7383 35.1797 43.4297 33.7149L43.6406 33.2695L43.8047 33.7149C43.8867 33.9609 43.9922 34.6289 44.0273 35.2149Z"
                    fill="white"
                  />
                  <path
                    d="M49.0664 10.5703C48.8555 10.7929 48.6446 11.6367 47.8125 15.832C46.8516 20.6718 46.8282 20.8359 47.0274 21.1289C47.25 21.4687 47.6719 21.6211 48.0821 21.5156C48.2227 21.4804 49.9102 19.8867 51.8321 17.9531C54.8907 14.8828 55.3125 14.4258 55.3125 14.0976C55.3125 13.8984 55.2188 13.6289 55.1133 13.5C54.75 13.1015 49.9688 10.3125 49.6407 10.3125C49.4649 10.3125 49.2071 10.4297 49.0664 10.5703ZM51.6328 13.5L52.8516 14.2383L51.1289 15.9609C50.1797 16.9101 49.3946 17.6718 49.3828 17.6601C49.3477 17.625 50.3203 12.7734 50.3672 12.7734C50.3907 12.7734 50.9649 13.1015 51.6328 13.5Z"
                    fill="white"
                  />
                  <path
                    d="M51.4218 23.168C49.4882 25.0898 47.8945 26.789 47.8476 26.9414C47.7539 27.3398 47.9414 27.7969 48.2929 27.9961C48.5742 28.1484 49.0078 28.0781 53.5664 27.1758C58.9218 26.1211 59.0625 26.0742 59.0625 25.3594C59.0625 25.0312 56.2734 20.25 55.875 19.8867C55.7461 19.7812 55.4765 19.6875 55.2773 19.6875C54.9492 19.6875 54.4922 20.1094 51.4218 23.168ZM56.0039 23.5898C56.3437 24.164 56.6015 24.6445 56.5898 24.6562C56.5664 24.6797 55.5468 24.8906 54.3164 25.125C53.0976 25.3594 51.9843 25.5937 51.8554 25.6289C51.7265 25.664 52.4062 24.8906 53.3672 23.918C54.9023 22.3828 55.1367 22.1836 55.2539 22.3594C55.3242 22.4648 55.664 23.0273 56.0039 23.5898Z"
                    fill="white"
                  />
                  <path
                    d="M18.3398 47.8711C13.1601 48.9141 13.1132 48.9375 13.1249 49.6758C13.1367 49.8516 13.7695 51.0235 14.6835 52.5586C16.3124 55.2422 16.4882 55.4414 17.121 55.2774C17.2734 55.2305 18.9726 53.6367 20.8945 51.7032C24.0351 48.5625 24.375 48.1758 24.375 47.836C24.375 47.3438 23.9296 46.875 23.4726 46.8867C23.2968 46.8985 20.9882 47.3321 18.3398 47.8711ZM18.8085 51.0938C17.2851 52.6172 17.0507 52.8164 16.9335 52.6407C16.5468 52.0782 15.5624 50.3672 15.5976 50.3438C15.6328 50.3203 19.8515 49.4649 20.5078 49.3477C20.5429 49.336 19.7812 50.1211 18.8085 51.0938Z"
                    fill="white"
                  />
                  <path
                    d="M26.1093 51.293C24.1758 53.2149 22.582 54.9141 22.5351 55.0664C22.3711 55.6992 22.5703 55.875 25.2539 57.5039C26.789 58.418 27.9609 59.0508 28.1367 59.0625C28.875 59.0742 28.8867 59.0391 29.9531 53.7305C30.4922 51.0234 30.9375 48.7149 30.9375 48.5977C30.9375 48.2461 30.4101 47.8125 29.9765 47.8125C29.6367 47.8125 29.25 48.1524 26.1093 51.293ZM27.9726 54.1406C27.7148 55.4649 27.4922 56.5547 27.4804 56.5781C27.457 56.6016 26.8945 56.2852 26.2148 55.875L24.9726 55.1367L26.6953 53.4141C27.6328 52.4649 28.4179 51.7031 28.4297 51.7149C28.4414 51.7266 28.2422 52.8164 27.9726 54.1406Z"
                    fill="white"
                  />
                </svg>