<svg
    className="w-8 h-8"
    viewBox="0 0 60 60"
    fill="none"
    xmlns="http://www.w3.org/2000/svg"
>
    <path
        d="M34.7695 1.11327C29.8242 1.8164 25.6523 3.86718 22.2656 7.26562C17.1093 12.4219 14.9296 19.7344 16.4062 26.8945C16.9218 29.4023 18.1054 32.2266 19.5351 34.3711L20.3085 35.5312L18.3632 37.4766L16.4179 39.4219L15.8906 38.9297C14.8945 38.0156 15.4335 37.6055 8.30855 44.7187C4.32417 48.7031 1.89839 51.2109 1.66402 51.5976C0.0937053 54.2109 1.25386 57.6094 4.10152 58.7344C4.58199 58.9219 5.01558 58.9922 5.80074 58.9922C7.0898 59.0039 7.81636 58.7812 8.75386 58.0664C9.12886 57.7969 12.164 54.832 15.5039 51.4805C22.371 44.6016 21.9843 45.1055 21.0703 44.1094L20.5781 43.582L22.5234 41.6367L24.4687 39.6914L25.5585 40.418C26.8242 41.2734 29.0507 42.375 30.4804 42.8789C34.125 44.1328 38.3671 44.3789 42.1406 43.5351C46.6875 42.5156 50.8007 40.0664 53.7656 36.6211C60.1757 29.1562 60.8085 18.5742 55.3242 10.418C52.125 5.66015 46.9101 2.26171 41.2734 1.27734C39.4804 0.96093 36.3632 0.878899 34.7695 1.11327ZM39.996 2.98827C51.5156 4.49999 59.2031 15.4453 56.707 26.7773C55.8281 30.7266 53.5078 34.6406 50.4726 37.2773C45.1171 41.9414 37.8515 43.3828 31.1718 41.1328C22.3359 38.1445 16.7812 29.2266 17.9882 20.0039C19.4062 9.18749 29.25 1.58202 39.996 2.98827ZM22.289 37.7461L23.0039 38.4609L21.1171 40.3476L19.2187 42.2461L18.4921 41.5078L17.7539 40.7812L19.6289 38.9062C20.6601 37.875 21.5156 37.0312 21.539 37.0312C21.5625 37.0312 21.9023 37.3476 22.289 37.7461ZM17.1679 42.8906L19.2773 45L13.4765 50.8125C10.1953 54.0937 7.47652 56.7305 7.20699 56.8711C6.58589 57.2109 5.17964 57.2226 4.57027 56.9062C3.99605 56.6016 3.42183 56.0391 3.12886 55.4883C2.78902 54.8672 2.7773 53.4609 3.09371 52.8516C3.26949 52.5 14.8359 40.7812 15 40.7812C15.0351 40.7812 16.0078 41.7305 17.1679 42.8906Z"
        fill="white"
    />
    <path
        d="M35.8008 4.75781C31.0547 5.4375 28.0195 6.89062 24.9492 9.94922C22.2539 12.6562 20.6602 15.6562 19.9688 19.3945C19.6641 21.0117 19.6641 23.9883 19.9688 25.6055C20.6602 29.3438 22.2422 32.332 24.9492 35.0508C27.6562 37.7461 30.6562 39.3398 34.3945 40.0312C36.0117 40.3359 38.9883 40.3359 40.6055 40.0312C44.3438 39.3398 47.3438 37.7461 50.0508 35.0508C52.7461 32.3438 54.3398 29.3438 55.0312 25.6055C55.3242 24.0234 55.3359 20.8945 55.043 19.3945C54.293 15.5508 52.5586 12.3281 49.8516 9.71484C47.25 7.20703 44.25 5.66016 40.6641 4.98047C39.7148 4.79297 36.5391 4.65234 35.8008 4.75781ZM40.7227 6.89062C47.0859 8.27344 51.8906 13.1719 53.168 19.5703C53.4609 21 53.4492 24.0703 53.1562 25.4883C51.9727 31.1953 48.0938 35.6719 42.7031 37.5352C40.793 38.1914 39.6914 38.3672 37.5 38.3672C36.1523 38.3672 35.2617 38.3086 34.5703 38.168C28.0781 36.8789 23.1328 31.9336 21.832 25.4531C21.5508 24.0469 21.5508 20.9531 21.832 19.5469C23.1797 12.8438 28.3594 7.83984 35.1211 6.73828C36.5156 6.51562 39.3047 6.58594 40.7227 6.89062Z"
        fill="white"
    />
    <path
        d="M36.5625 11.7188V14.0625H37.5H38.4375V11.7188V9.375H37.5H36.5625V11.7188Z"
        fill="white"
    />
    <path
        d="M29.0273 12.1641C28.7227 12.4688 28.4766 12.7734 28.4766 12.832C28.4766 12.9023 29.2969 13.7695 30.293 14.7656L32.1094 16.582L32.7773 15.9023L33.457 15.2344L31.6406 13.418C30.6445 12.4219 29.7773 11.6016 29.707 11.6016C29.6367 11.6016 29.332 11.8594 29.0273 12.1641Z"
        fill="white"
    />
    <path
        d="M43.3828 13.3945C42.4102 14.3789 41.6016 15.2344 41.6016 15.293C41.6016 15.4453 42.6797 16.5234 42.832 16.5234C42.9023 16.5234 43.7695 15.7031 44.7656 14.707L46.582 12.8906L45.9375 12.2461C45.5859 11.8945 45.2695 11.6016 45.2344 11.6016C45.1992 11.6016 44.3672 12.4102 43.3828 13.3945Z"
        fill="white"
    />
    <path
        d="M36.3398 16.0664C34.8047 16.3711 33.2227 17.6016 32.5195 19.0313C31.5586 20.9766 31.6875 22.793 32.918 24.8203C33.1758 25.2539 33.457 25.793 33.5273 26.0039C33.6563 26.3672 33.6445 26.4258 33.4453 26.5313C33.3281 26.6016 32.9766 26.9063 32.6836 27.1992C32.1328 27.75 31.875 28.3828 31.875 29.2031C31.875 30.0234 32.7773 31.3477 33.4922 31.5703C33.668 31.6289 33.7383 31.793 33.7969 32.2969C33.9492 33.5625 34.6172 34.5469 35.7656 35.168C36.4453 35.5313 36.5859 35.5664 37.5 35.5547C38.3438 35.5547 38.5898 35.5078 39.0938 35.25C39.4219 35.0742 39.8555 34.8047 40.043 34.6406C40.5469 34.2188 41.1094 33.082 41.2031 32.3086C41.2734 31.7344 41.3203 31.6406 41.625 31.5117C42.0938 31.3242 42.8203 30.457 42.9844 29.9063C43.3008 28.875 43.0664 27.9492 42.3047 27.1758C42.0117 26.8828 41.6719 26.5781 41.5547 26.5195C41.2617 26.3555 41.3438 26.0508 42.0117 24.9609C42.7148 23.7891 43.0195 22.957 43.0898 21.9727C43.3711 18.293 40.0078 15.3398 36.3398 16.0664ZM39.0469 18.1875C40.6172 18.9141 41.5313 20.7188 41.1445 22.3594C41.0625 22.6758 40.7344 23.3789 40.418 23.918C40.1016 24.457 39.75 25.207 39.6328 25.5703L39.4336 26.25H37.5H35.5664L35.3672 25.5703C35.25 25.207 34.8984 24.457 34.5703 23.9063C33.9023 22.7813 33.75 22.3359 33.75 21.5391C33.75 18.8672 36.5977 17.0742 39.0469 18.1875ZM40.957 28.418C41.1445 28.5938 41.25 28.8398 41.25 29.0625C41.25 29.2852 41.1445 29.5313 40.957 29.707L40.6758 30H37.5H34.3242L34.043 29.707C33.8555 29.5313 33.75 29.2852 33.75 29.0625C33.75 28.8398 33.8555 28.5938 34.043 28.418L34.3242 28.125H37.5H40.6758L40.957 28.418ZM39.3281 32.25C39.2461 32.707 38.9648 33.1172 38.5078 33.4453C38.2734 33.6328 38.0156 33.6914 37.5 33.6914C36.9844 33.6914 36.7266 33.6328 36.4922 33.4453C36.0352 33.1172 35.7539 32.707 35.6719 32.25L35.6016 31.875H37.5H39.4102L39.3281 32.25Z"
        fill="white"
    />
    <path
        d="M25.3125 20.625V21.5625H27.6562H30V20.625V19.6875H27.6562H25.3125V20.625Z"
        fill="white"
    />
    <path
        d="M45 20.625V21.5625H47.3438H49.6875V20.625V19.6875H47.3438H45V20.625Z"
        fill="white"
    />
    <path
        d="M28.3828 26.5195C27.4102 27.5039 26.6016 28.3594 26.6016 28.418C26.6016 28.5703 27.6797 29.6484 27.832 29.6484C27.9023 29.6484 28.7695 28.8281 29.7656 27.832L31.582 26.0156L30.9375 25.3711C30.5859 25.0195 30.2695 24.7266 30.2344 24.7266C30.1992 24.7266 29.3672 25.5352 28.3828 26.5195Z"
        fill="white"
    />
    <path
        d="M44.0273 25.2891C43.7227 25.5938 43.4766 25.8984 43.4766 25.957C43.4766 26.0273 44.2969 26.8945 45.293 27.8906L47.1094 29.707L47.7773 29.0273L48.457 28.3594L46.6406 26.543C45.6445 25.5469 44.7773 24.7266 44.707 24.7266C44.6367 24.7266 44.332 24.9844 44.0273 25.2891Z"
        fill="white"
    />
</svg>